<?xml version="1.0" encoding="UTF-8" standalone="no"?>
<!-- Created with Inkscape (http://www.inkscape.org/) -->

<svg
   width="43.552273mm"
   height="8.4666672mm"
   viewBox="0 0 43.552273 8.4666672"
   version="1.1"
   id="svg1"
   xmlns:inkscape="http://www.inkscape.org/namespaces/inkscape"
   xmlns:sodipodi="http://sodipodi.sourceforge.net/DTD/sodipodi-0.dtd"
   xmlns="http://www.w3.org/2000/svg"
   xmlns:svg="http://www.w3.org/2000/svg">
  <sodipodi:namedview
     id="namedview1"
     pagecolor="#ffffff"
     bordercolor="#000000"
     borderopacity="0.25"
     inkscape:showpageshadow="2"
     inkscape:pageopacity="0.0"
     inkscape:pagecheckerboard="0"
     inkscape:deskcolor="#d1d1d1"
     inkscape:document-units="mm" />
  <defs
     id="defs1" />
  <g
     inkscape:label="Layer 1"
     inkscape:groupmode="layer"
     id="layer1"
     transform="translate(-6.7223527,-6.8609875)">
    <g
       id="g24"
       transform="matrix(1.2375632,0,0,1.2375632,-1.5969832,-1.6299178)">
      <path
         id="text1-0"
         style="font-size:3.175px;fill:#008000;stroke-width:0.264583"
         sodipodi:type="inkscape:offset"
         inkscape:radius="0.22570595"
         inkscape:original="M 52.396484 53.216797 C 52.209159 53.216797 52.082031 53.342703 52.082031 53.533203 C 52.082031 53.720528 52.209159 53.847656 52.396484 53.847656 C 52.583809 53.847656 52.710937 53.720528 52.710938 53.533203 C 52.710938 53.342703 52.583809 53.216797 52.396484 53.216797 z M 48.675781 53.412109 L 49.310547 55.617188 L 49.914062 55.617188 L 50.294922 54.166016 L 50.714844 55.617188 L 51.300781 55.617188 L 51.933594 53.412109 L 51.376953 53.412109 L 51.021484 54.892578 L 50.621094 53.425781 L 50.021484 53.425781 L 49.638672 54.9375 L 49.294922 53.412109 L 48.675781 53.412109 z M 59.435547 53.412109 L 59.435547 55.617188 L 60.001953 55.617188 L 60.001953 54.527344 L 60.699219 55.617188 L 61.435547 55.617188 L 60.628906 54.429688 L 61.384766 53.412109 L 60.722656 53.412109 L 60.001953 54.40625 L 60.001953 53.412109 L 59.435547 53.412109 z M 56.439453 53.613281 L 56.439453 54.060547 L 56.216797 54.060547 L 56.216797 54.490234 L 56.439453 54.490234 L 56.439453 55.056641 C 56.439453 55.424941 56.667088 55.642578 57.070312 55.642578 C 57.178262 55.642578 57.300003 55.626722 57.423828 55.591797 L 57.318359 55.203125 C 57.277084 55.219 57.232681 55.226564 57.191406 55.226562 C 57.058056 55.226562 56.978516 55.155316 56.978516 55.041016 L 56.978516 54.490234 L 57.337891 54.490234 L 57.337891 54.060547 L 56.978516 54.060547 L 56.978516 53.613281 L 56.439453 53.613281 z M 53.734375 54.029297 C 53.251775 54.029297 52.990234 54.213009 52.990234 54.552734 C 52.990234 54.936909 53.324375 54.987291 53.5625 55.025391 C 53.699025 55.047616 53.802734 55.062964 53.802734 55.132812 C 53.802734 55.193137 53.718556 55.236328 53.582031 55.236328 C 53.445506 55.236328 53.247862 55.197775 53.085938 55.140625 L 52.96875 55.53125 C 53.14655 55.604275 53.38395 55.648438 53.609375 55.648438 C 54.079275 55.648438 54.345703 55.453736 54.345703 55.117188 C 54.345703 54.733013 53.999603 54.674087 53.751953 54.632812 C 53.618603 54.607413 53.513672 54.590844 53.513672 54.527344 C 53.513672 54.473369 53.589788 54.441406 53.742188 54.441406 C 53.866011 54.441406 54.020206 54.463853 54.175781 54.501953 L 54.279297 54.105469 C 54.126897 54.057844 53.9217 54.029297 53.734375 54.029297 z M 55.248047 54.029297 C 55.006747 54.029297 54.753491 54.086391 54.556641 54.181641 L 54.683594 54.552734 C 54.845519 54.495584 54.994334 54.466797 55.130859 54.466797 C 55.346759 54.466797 55.474119 54.539256 55.480469 54.675781 C 54.832769 54.691656 54.537109 54.847534 54.537109 55.177734 C 54.537109 55.460309 54.749388 55.648437 55.085938 55.648438 C 55.285961 55.648438 55.445025 55.581347 55.5625 55.451172 L 55.619141 55.617188 L 56.015625 55.617188 L 56.015625 54.751953 C 56.015625 54.282053 55.756047 54.029297 55.248047 54.029297 z M 58.279297 54.029297 C 58.037997 54.029297 57.784741 54.086391 57.587891 54.181641 L 57.714844 54.552734 C 57.876769 54.495584 58.025584 54.466797 58.162109 54.466797 C 58.378009 54.466797 58.505369 54.539256 58.511719 54.675781 C 57.864019 54.691656 57.568359 54.847534 57.568359 55.177734 C 57.568359 55.460309 57.782591 55.648437 58.119141 55.648438 C 58.319166 55.648438 58.476275 55.581347 58.59375 55.451172 L 58.652344 55.617188 L 59.048828 55.617188 L 59.048828 54.751953 C 59.048828 54.282053 58.787297 54.029297 58.279297 54.029297 z M 52.121094 54.060547 L 52.121094 55.617188 L 52.669922 55.617188 L 52.669922 54.060547 L 52.121094 54.060547 z M 61.566406 54.060547 L 61.566406 55.025391 C 61.566406 55.400041 61.781378 55.634766 62.095703 55.634766 C 62.286203 55.634766 62.4543 55.556937 62.578125 55.414062 L 62.664062 55.617188 L 63.0625 55.617188 L 63.0625 54.060547 L 62.511719 54.060547 L 62.511719 55.080078 C 62.454569 55.130878 62.3887 55.160156 62.3125 55.160156 C 62.11565 55.160156 62.115234 54.970972 62.115234 54.904297 L 62.115234 54.902344 L 62.115234 54.060547 L 61.566406 54.060547 z M 55.480469 54.949219 L 55.480469 55.166016 C 55.423319 55.213641 55.353544 55.238281 55.277344 55.238281 C 55.166219 55.238281 55.089844 55.182159 55.089844 55.099609 C 55.089844 55.001184 55.197894 54.958744 55.480469 54.949219 z M 58.511719 54.949219 L 58.511719 55.166016 C 58.454569 55.213641 58.384794 55.238281 58.308594 55.238281 C 58.197469 55.238281 58.121094 55.182159 58.121094 55.099609 C 58.121094 55.001184 58.229144 54.958744 58.511719 54.949219 z "
         d="m 52.396484,52.990234 c -0.14423,0 -0.286078,0.05349 -0.386718,0.154297 -0.01519,0.01521 -0.01046,0.0416 -0.02344,0.05859 a 0.22572852,0.22572852 0 0 0 -0.05273,-0.01758 h -0.556641 a 0.22572852,0.22572852 0 0 0 -0.21875,0.173828 l -0.150391,0.628906 -0.169921,-0.621094 a 0.22572852,0.22572852 0 0 0 -0.216797,-0.167968 h -0.59961 a 0.22572852,0.22572852 0 0 0 -0.21875,0.171875 l -0.15039,0.595703 -0.136719,-0.603516 a 0.22572852,0.22572852 0 0 0 -0.220703,-0.177734 h -0.619141 a 0.22572852,0.22572852 0 0 0 -0.216797,0.289062 l 0.634766,2.205078 a 0.22572852,0.22572852 0 0 0 0.216797,0.164063 h 0.603515 a 0.22572852,0.22572852 0 0 0 0.21875,-0.169922 l 0.173829,-0.658203 0.191406,0.664062 a 0.22572852,0.22572852 0 0 0 0.216797,0.164063 h 0.585937 a 0.22572852,0.22572852 0 0 0 0.216797,-0.164063 l 0.376953,-1.314453 v 1.251953 a 0.22572852,0.22572852 0 0 0 0.226563,0.226563 h 0.548828 a 0.22572852,0.22572852 0 0 0 0.177734,-0.177734 0.22572852,0.22572852 0 0 0 0.03516,0.07422 c 0.21353,0.0877 0.47166,0.134766 0.726563,0.134766 0.266123,0 0.496467,-0.05378 0.675781,-0.183594 0.05813,-0.04208 0.09512,-0.104306 0.136719,-0.162109 0.03435,0.05695 0.06488,0.116567 0.115234,0.160156 0.144178,0.124803 0.338498,0.185546 0.548828,0.185547 0.152532,0 0.290729,-0.04778 0.417969,-0.115234 a 0.22572852,0.22572852 0 0 0 0.115235,0.08398 h 0.396484 a 0.22572852,0.22572852 0 0 0 0.226562,-0.226563 v -0.396484 c 0.02922,0.165321 0.0884,0.3206 0.207032,0.431641 0.158174,0.148055 0.378874,0.216797 0.621093,0.216797 0.130052,0 0.270216,-0.01998 0.414063,-0.06055 a 0.22572852,0.22572852 0 0 0 0.134766,-0.103516 c 0.139537,0.103072 0.308279,0.169921 0.5,0.169922 0.152255,0 0.291402,-0.046 0.417968,-0.113281 a 0.22572852,0.22572852 0 0 0 0.115235,0.08203 h 0.396484 a 0.22572852,0.22572852 0 0 0 0.193359,-0.193359 0.22572852,0.22572852 0 0 0 0.19336,0.193359 h 0.566406 a 0.22572852,0.22572852 0 0 0 0.226563,-0.226563 v -0.318359 l 0.28125,0.439453 a 0.22572852,0.22572852 0 0 0 0.189453,0.105469 h 0.736328 a 0.22572852,0.22572852 0 0 0 0.201172,-0.15625 c 0.128976,0.103586 0.286047,0.173828 0.458984,0.173828 0.149543,0 0.287154,-0.05017 0.414063,-0.121094 a 0.22572852,0.22572852 0 0 0 0.154296,0.103516 H 63.0625 a 0.22572852,0.22572852 0 0 0 0.226562,-0.226563 v -1.55664 A 0.22572852,0.22572852 0 0 0 63.0625,53.833984 H 62.511719 A 0.22572852,0.22572852 0 0 0 62.3125,54.03125 0.22572852,0.22572852 0 0 0 62.115234,53.833984 h -0.548828 a 0.22572852,0.22572852 0 0 0 -0.226562,0.226563 v 0.964844 c 0,0.02209 0.0085,0.04082 0.0098,0.0625 l -0.443359,-0.652344 0.660156,-0.888672 a 0.22572852,0.22572852 0 0 0 -0.18164,-0.361328 h -0.66211 a 0.22572852,0.22572852 0 0 0 -0.183594,0.09375 l -0.310546,0.427734 v -0.294922 a 0.22572852,0.22572852 0 0 0 -0.226563,-0.226562 h -0.566406 a 0.22572852,0.22572852 0 0 0 -0.226563,0.226562 v 0.945313 c -0.04348,-0.117541 -0.109257,-0.221535 -0.199218,-0.306641 -0.182058,-0.172231 -0.439036,-0.248047 -0.730469,-0.248047 -0.276903,0 -0.555722,0.06287 -0.789063,0.175782 a 0.22572852,0.22572852 0 0 0 -0.002,0.0059 0.22572852,0.22572852 0 0 0 -0.15039,-0.150391 h -0.132813 v -0.220703 a 0.22572852,0.22572852 0 0 0 -0.226562,-0.226562 h -0.539063 a 0.22572852,0.22572852 0 0 0 -0.226562,0.226562 v 0.22461 a 0.22572852,0.22572852 0 0 0 -0.222657,0.222656 v 0.0078 c -0.005,-0.005 -0.0065,-0.01266 -0.01172,-0.01758 -0.181587,-0.172439 -0.439036,-0.248047 -0.730469,-0.248047 -0.27625,0 -0.554103,0.06338 -0.78711,0.175782 a 0.22572852,0.22572852 0 0 0 -0.115234,-0.08789 c -0.182944,-0.05717 -0.401073,-0.08789 -0.611328,-0.08789 -0.26994,0 -0.502269,0.04828 -0.683594,0.175782 -0.06647,0.04674 -0.109641,0.116427 -0.154297,0.183593 v -0.101562 a 0.22572852,0.22572852 0 0 0 -0.132812,-0.132813 c 0.0053,-0.0048 0.01446,-0.0027 0.01953,-0.0078 0.100334,-0.100333 0.154296,-0.241998 0.154297,-0.386719 0,-0.145458 -0.05366,-0.287865 -0.154297,-0.388672 -0.10064,-0.100806 -0.242489,-0.154297 -0.386719,-0.154297 z m -0.375,0.933594 c 0.0017,0.0016 0.0041,0.0023 0.0059,0.0039 a 0.22572852,0.22572852 0 0 0 -0.0098,0.0098 z m 2.396485,0.546875 0.05273,0.154297 a 0.22572852,0.22572852 0 0 0 0.07813,0.08789 c -0.02439,0.02163 -0.04942,0.04159 -0.07031,0.06641 -0.04384,-0.07448 -0.106557,-0.124336 -0.167969,-0.171875 a 0.22572852,0.22572852 0 0 0 0.08398,-0.04883 z m 3.066406,0.09961 0.01758,0.05469 a 0.22572852,0.22572852 0 0 0 0.07813,0.08789 c -0.09006,0.07986 -0.151746,0.174045 -0.1875,0.287109 a 0.22572852,0.22572852 0 0 0 -0.154297,-0.0078 c -0.0093,0.0036 -0.02193,0.0046 -0.0332,0.0059 v -0.28125 h 0.132813 a 0.22572852,0.22572852 0 0 0 0.146484,-0.146485 z m -4.587891,0.363282 c 0.01449,0.02022 0.03266,0.03291 0.04883,0.05078 a 0.22572852,0.22572852 0 0 0 -0.04883,0.05859 z"
         transform="matrix(2.3715624,0,0,2.3715624,-108.17965,-118.80866)" />
      <path
         id="text1"
         style="font-size:3.175px;fill:#ffff00;stroke-width:0.264583"
         sodipodi:type="inkscape:offset"
         inkscape:radius="0"
         inkscape:original="M 52.396484 53.216797 C 52.209159 53.216797 52.082031 53.342703 52.082031 53.533203 C 52.082031 53.720528 52.209159 53.847656 52.396484 53.847656 C 52.583809 53.847656 52.710937 53.720528 52.710938 53.533203 C 52.710938 53.342703 52.583809 53.216797 52.396484 53.216797 z M 48.675781 53.412109 L 49.310547 55.617188 L 49.914062 55.617188 L 50.294922 54.166016 L 50.714844 55.617188 L 51.300781 55.617188 L 51.933594 53.412109 L 51.376953 53.412109 L 51.021484 54.892578 L 50.621094 53.425781 L 50.021484 53.425781 L 49.638672 54.9375 L 49.294922 53.412109 L 48.675781 53.412109 z M 59.435547 53.412109 L 59.435547 55.617188 L 60.001953 55.617188 L 60.001953 54.527344 L 60.699219 55.617188 L 61.435547 55.617188 L 60.628906 54.429688 L 61.384766 53.412109 L 60.722656 53.412109 L 60.001953 54.40625 L 60.001953 53.412109 L 59.435547 53.412109 z M 56.439453 53.613281 L 56.439453 54.060547 L 56.216797 54.060547 L 56.216797 54.490234 L 56.439453 54.490234 L 56.439453 55.056641 C 56.439453 55.424941 56.667088 55.642578 57.070312 55.642578 C 57.178262 55.642578 57.300003 55.626722 57.423828 55.591797 L 57.318359 55.203125 C 57.277084 55.219 57.232681 55.226563 57.191406 55.226562 C 57.058056 55.226562 56.978516 55.155316 56.978516 55.041016 L 56.978516 54.490234 L 57.337891 54.490234 L 57.337891 54.060547 L 56.978516 54.060547 L 56.978516 53.613281 L 56.439453 53.613281 z M 53.734375 54.029297 C 53.251775 54.029297 52.990234 54.213009 52.990234 54.552734 C 52.990234 54.936909 53.324375 54.987291 53.5625 55.025391 C 53.699025 55.047616 53.802734 55.062963 53.802734 55.132812 C 53.802734 55.193137 53.718556 55.236328 53.582031 55.236328 C 53.445506 55.236328 53.247862 55.197775 53.085938 55.140625 L 52.96875 55.53125 C 53.14655 55.604275 53.38395 55.648438 53.609375 55.648438 C 54.079275 55.648438 54.345703 55.453737 54.345703 55.117188 C 54.345703 54.733013 53.999603 54.674087 53.751953 54.632812 C 53.618603 54.607413 53.513672 54.590844 53.513672 54.527344 C 53.513672 54.473369 53.589788 54.441406 53.742188 54.441406 C 53.866012 54.441406 54.020206 54.463853 54.175781 54.501953 L 54.279297 54.105469 C 54.126897 54.057844 53.9217 54.029297 53.734375 54.029297 z M 55.248047 54.029297 C 55.006747 54.029297 54.753491 54.086391 54.556641 54.181641 L 54.683594 54.552734 C 54.845519 54.495584 54.994334 54.466797 55.130859 54.466797 C 55.346759 54.466797 55.474119 54.539256 55.480469 54.675781 C 54.832769 54.691656 54.537109 54.847534 54.537109 55.177734 C 54.537109 55.460309 54.749388 55.648437 55.085938 55.648438 C 55.285962 55.648438 55.445025 55.581347 55.5625 55.451172 L 55.619141 55.617188 L 56.015625 55.617188 L 56.015625 54.751953 C 56.015625 54.282053 55.756047 54.029297 55.248047 54.029297 z M 58.279297 54.029297 C 58.037997 54.029297 57.784741 54.086391 57.587891 54.181641 L 57.714844 54.552734 C 57.876769 54.495584 58.025584 54.466797 58.162109 54.466797 C 58.378009 54.466797 58.505369 54.539256 58.511719 54.675781 C 57.864019 54.691656 57.568359 54.847534 57.568359 55.177734 C 57.568359 55.460309 57.782591 55.648437 58.119141 55.648438 C 58.319166 55.648438 58.476275 55.581347 58.59375 55.451172 L 58.652344 55.617188 L 59.048828 55.617188 L 59.048828 54.751953 C 59.048828 54.282053 58.787297 54.029297 58.279297 54.029297 z M 52.121094 54.060547 L 52.121094 55.617188 L 52.669922 55.617188 L 52.669922 54.060547 L 52.121094 54.060547 z M 61.566406 54.060547 L 61.566406 55.025391 C 61.566406 55.400041 61.781378 55.634766 62.095703 55.634766 C 62.286203 55.634766 62.4543 55.556937 62.578125 55.414062 L 62.664062 55.617188 L 63.0625 55.617188 L 63.0625 54.060547 L 62.511719 54.060547 L 62.511719 55.080078 C 62.454569 55.130878 62.3887 55.160156 62.3125 55.160156 C 62.11565 55.160156 62.115234 54.970972 62.115234 54.904297 L 62.115234 54.902344 L 62.115234 54.060547 L 61.566406 54.060547 z M 55.480469 54.949219 L 55.480469 55.166016 C 55.423319 55.213641 55.353544 55.238281 55.277344 55.238281 C 55.166219 55.238281 55.089844 55.182159 55.089844 55.099609 C 55.089844 55.001184 55.197894 54.958744 55.480469 54.949219 z M 58.511719 54.949219 L 58.511719 55.166016 C 58.454569 55.213641 58.384794 55.238281 58.308594 55.238281 C 58.197469 55.238281 58.121094 55.182159 58.121094 55.099609 C 58.121094 55.001184 58.229144 54.958744 58.511719 54.949219 z "
         d="m 52.396484,53.216797 c -0.187325,0 -0.314453,0.125906 -0.314453,0.316406 0,0.187325 0.127128,0.314453 0.314453,0.314453 0.187325,0 0.314453,-0.127128 0.314454,-0.314453 0,-0.1905 -0.127129,-0.316406 -0.314454,-0.316406 z m -3.720703,0.195312 0.634766,2.205079 h 0.603515 l 0.38086,-1.451172 0.419922,1.451172 h 0.585937 l 0.632813,-2.205079 h -0.556641 l -0.355469,1.480469 -0.40039,-1.466797 h -0.59961 l -0.382812,1.511719 -0.34375,-1.525391 z m 10.759766,0 v 2.205079 h 0.566406 v -1.089844 l 0.697266,1.089844 h 0.736328 l -0.806641,-1.1875 0.75586,-1.017579 h -0.66211 l -0.720703,0.994141 v -0.994141 z m -2.996094,0.201172 v 0.447266 h -0.222656 v 0.429687 h 0.222656 v 0.566407 c 0,0.3683 0.227635,0.585937 0.630859,0.585937 0.10795,0 0.229691,-0.01586 0.353516,-0.05078 l -0.105469,-0.388672 c -0.04127,0.01588 -0.08568,0.02344 -0.126953,0.02344 -0.13335,0 -0.21289,-0.07125 -0.21289,-0.185546 v -0.550782 h 0.359375 v -0.429687 h -0.359375 v -0.447266 z m -2.705078,0.416016 c -0.4826,0 -0.744141,0.183712 -0.744141,0.523437 0,0.384175 0.334141,0.434557 0.572266,0.472657 0.136525,0.02222 0.240234,0.03757 0.240234,0.107421 0,0.06032 -0.08418,0.103516 -0.220703,0.103516 -0.136525,0 -0.334169,-0.03855 -0.496093,-0.0957 L 52.96875,55.53125 c 0.1778,0.07303 0.4152,0.117188 0.640625,0.117188 0.4699,0 0.736328,-0.194701 0.736328,-0.53125 0,-0.384175 -0.3461,-0.443101 -0.59375,-0.484376 -0.13335,-0.0254 -0.238281,-0.04197 -0.238281,-0.105468 0,-0.05398 0.07612,-0.08594 0.228516,-0.08594 0.123824,0 0.278018,0.02245 0.433593,0.06055 l 0.103516,-0.396484 c -0.1524,-0.04762 -0.357597,-0.07617 -0.544922,-0.07617 z m 1.513672,0 c -0.2413,0 -0.494556,0.05709 -0.691406,0.152344 l 0.126953,0.371093 c 0.161925,-0.05715 0.31074,-0.08594 0.447265,-0.08594 0.2159,0 0.34326,0.07246 0.34961,0.208984 -0.6477,0.01588 -0.94336,0.171753 -0.94336,0.501953 0,0.282575 0.212279,0.470703 0.548829,0.470704 0.200024,0 0.359087,-0.06709 0.476562,-0.197266 l 0.05664,0.166016 h 0.396484 v -0.865235 c 0,-0.4699 -0.259578,-0.722656 -0.767578,-0.722656 z m 3.03125,0 c -0.2413,0 -0.494556,0.05709 -0.691406,0.152344 l 0.126953,0.371093 c 0.161925,-0.05715 0.31074,-0.08594 0.447265,-0.08594 0.2159,0 0.34326,0.07246 0.34961,0.208984 -0.6477,0.01588 -0.94336,0.171753 -0.94336,0.501953 0,0.282575 0.214232,0.470703 0.550782,0.470704 0.200025,0 0.357134,-0.06709 0.474609,-0.197266 l 0.05859,0.166016 h 0.396484 v -0.865235 c 0,-0.4699 -0.261531,-0.722656 -0.769531,-0.722656 z m -6.158203,0.03125 v 1.556641 h 0.548828 v -1.556641 z m 9.445312,0 v 0.964844 c 0,0.37465 0.214972,0.609375 0.529297,0.609375 0.1905,0 0.358597,-0.07783 0.482422,-0.220704 l 0.08594,0.203126 H 63.0625 v -1.556641 h -0.550781 v 1.019531 c -0.05715,0.0508 -0.123019,0.08008 -0.199219,0.08008 -0.19685,0 -0.197266,-0.189184 -0.197266,-0.255859 v -0.002 -0.841797 z m -6.085937,0.888672 v 0.216797 c -0.05715,0.04763 -0.126925,0.07227 -0.203125,0.07227 -0.111125,0 -0.1875,-0.05612 -0.1875,-0.138672 0,-0.09842 0.10805,-0.140865 0.390625,-0.15039 z m 3.03125,0 v 0.216797 c -0.05715,0.04763 -0.126925,0.07227 -0.203125,0.07227 -0.111125,0 -0.1875,-0.05612 -0.1875,-0.138672 0,-0.09842 0.10805,-0.140865 0.390625,-0.15039 z"
         transform="matrix(2.3715624,0,0,2.3715624,-108.11629,-118.72619)" />
    </g>
  </g>
</svg>
